<?xml version="1.0" standalone="no"?><!DOCTYPE svg PUBLIC "-//W3C//DTD SVG 1.1//EN" "http://www.w3.org/Graphics/SVG/1.1/DTD/svg11.dtd"><svg t="1641954932118" class="icon" viewBox="0 0 1024 1024" version="1.1" xmlns="http://www.w3.org/2000/svg" p-id="4160" xmlns:xlink="http://www.w3.org/1999/xlink" width="200" height="200"><defs><style type="text/css"></style></defs><path d="M933.408 767.008L563.2 977.728a64.064 64.064 0 0 1-64.992 0L129.952 767.008c-15.744-7.872-15.744-27.584 0-35.456l86.656-49.216a17.888 17.888 0 0 1 19.68 0l224.48 128c21.664 11.808 45.28 17.728 70.88 17.728s49.216-5.92 70.88-17.728l224.48-128a17.888 17.888 0 0 1 19.68 0l86.656 49.216c15.744 7.872 15.744 27.584 0 35.456z m0-236.288L563.2 741.44a64.064 64.064 0 0 1-64.992 0L129.952 530.72c-15.744-7.872-15.744-27.584 0-35.456l86.656-49.216a17.888 17.888 0 0 1 19.68 0l224.48 128c21.664 11.808 45.28 17.728 70.88 17.728s49.216-5.92 70.88-17.728l224.48-128a17.888 17.888 0 0 1 19.68 0l86.656 49.216c15.744 7.872 15.744 27.584 0 35.456z m-431.264-25.6L131.936 294.4c-15.744-7.872-15.744-27.584 0-35.456l370.208-210.72a64.064 64.064 0 0 1 64.992 0l370.208 210.72c15.744 7.872 15.744 27.584 0 35.456l-370.208 210.72a75.136 75.136 0 0 1-64.992 0z" fill="#54698D" p-id="4161"></path></svg>